<svg width="1440" height="261" viewBox="0 0 1440 261" fill="none" xmlns="http://www.w3.org/2000/svg">
<g filter="url(#filter0_d_126_129)">
<path d="M-66.3123 68.5293C-80.6654 76.67 -86.9551 83.6781 -102.435 89.2386C-127.421 89.2386 -129.22 113.434 -142.355 129.716C-163.639 156.102 -106.127 195.295 -83.9941 198.852C-63.7281 202.108 -43.7113 204.839 -23.6807 208.893C-1.29045 213.423 25.5556 209.729 48.3482 209.729C77.6895 209.729 106.584 206.182 135.781 205.964C169.525 205.712 203.368 206.845 237.099 205.859C312.198 203.665 385.169 199.342 460.345 204.918C492.84 207.328 525.019 211.622 557.432 214.227C584.881 216.432 611.057 223.1 638.356 225.732C669.229 228.709 700.077 231.698 730.887 235.25C757.972 238.372 784.511 239.063 811.703 240.898C866.23 244.578 920.061 245.5 974.744 245.5C1078.87 245.5 1182.65 239.852 1286.72 239.852C1316.14 239.852 1347.34 242.858 1376.54 239.434C1386.81 238.23 1408.54 235.123 1415.6 226.464C1427.45 211.913 1430.39 190.059 1437.18 173.017C1442.62 159.399 1458.37 147.62 1468.53 137.037C1480.15 124.938 1483.36 106.951 1494.78 95.9326C1504.5 86.5678 1495.23 74.4649 1488.93 65.1823C1482.55 55.7928 1469.75 55.3262 1463.54 46.3557C1456.51 36.1797 1455.25 34.6413 1442.5 34.6413C1425.71 34.6413 1408.3 34.2226 1391.73 31.6081C1334.27 22.5414 1274.98 18.4 1223.37 49.0751C1214.11 54.5792 1206.01 61.3713 1196.47 66.6466C1191.93 69.157 1185.66 75.7712 1180.42 76.06C1170.19 76.6234 1159.57 74.1613 1151.13 68.5293C1130.8 54.9619 1107.4 59.0724 1085.85 62.8578L1084.52 63.0905C1077.15 64.3831 1072.55 71.3194 1065.32 72.19C1061.79 72.6158 1058.03 72.2946 1054.48 72.2946H1054.45C1041.71 72.2946 1026.6 72.2946 1014.45 68.5293C1000.05 64.0677 987.025 55.5715 972.575 50.7486C959.995 46.5499 941.875 45.7645 928.533 48.2383C922.012 49.4475 916.608 54.0237 910.092 55.769C904.154 57.3593 897.648 58.9827 891.868 60.9986C879.674 65.2511 869.29 68.5293 856.287 68.5293C840.632 68.5293 825.862 66.4724 810.401 63.9272C790.618 60.6706 768.954 62.8813 748.895 62.8813C735.838 62.8813 725.959 64.4679 713.531 66.6466C701.82 68.6997 692.445 74.2767 681.422 77.5243C657.198 84.6609 634.769 81.0905 610.261 75.014C599.421 72.3266 589.514 68.3639 578.585 71.8763C570.463 74.4868 563.006 76.06 554.503 76.06C542.521 76.06 531.063 75.3568 519.357 74.2819C513.923 73.783 508.407 74.5963 502.977 74.0727C497.576 73.552 493.141 69.5245 487.464 68.5293C473.22 66.0322 461.492 59.116 446.351 59.116C426.428 59.116 406.625 60.9986 386.797 60.9986C372.777 60.9986 360.339 65.2845 346.878 68.5293C328.098 73.0561 309.678 72.2946 290.47 72.2946C274.514 72.2946 260.274 70.7237 244.692 68.1109C233.372 66.2127 223.509 62.8813 211.932 62.8813C181.698 62.8813 157.774 87.356 127.971 87.356C116.157 87.356 104.393 87.743 92.8239 85.2641C82.8969 83.1371 72.7738 76.406 63.535 72.2946C48.9098 65.7863 31.1014 62.2422 15.805 57.2333C4.60376 53.5653 -8.66473 55.3506 -20.3179 55.3506C-34.3478 55.3506 -54.0412 61.5695 -66.3123 68.5293Z" fill="white"/>
</g>
<defs>
<filter id="filter0_d_126_129" x="-167" y="0" width="1686" height="260.5" filterUnits="userSpaceOnUse" color-interpolation-filters="sRGB">
<feFlood flood-opacity="0" result="BackgroundImageFix"/>
<feColorMatrix in="SourceAlpha" type="matrix" values="0 0 0 0 0 0 0 0 0 0 0 0 0 0 0 0 0 0 127 0" result="hardAlpha"/>
<feOffset dy="-5"/>
<feGaussianBlur stdDeviation="10"/>
<feComposite in2="hardAlpha" operator="out"/>
<feColorMatrix type="matrix" values="0 0 0 0 0 0 0 0 0 0 0 0 0 0 0 0 0 0 0.15 0"/>
<feBlend mode="normal" in2="BackgroundImageFix" result="effect1_dropShadow_126_129"/>
<feBlend mode="normal" in="SourceGraphic" in2="effect1_dropShadow_126_129" result="shape"/>
</filter>
</defs>
</svg>
